<svg width="240" height="81" viewBox="0 0 240 81" fill="none" xmlns="http://www.w3.org/2000/svg">
<path d="M239.667 20.7982L229.904 36.0653V46.1829H224.315V36.1741L214.552 20.7982H221.085L227.146 30.9883L233.316 20.7982H239.667Z" fill="white"/>
<path d="M213.666 39.2202C213.666 43.862 209.891 46.1829 204.157 46.1829H192.071V20.7982H203.867C209.057 20.7982 212.25 23.3729 212.25 27.362V27.4345C212.25 30.2993 210.726 31.8949 208.911 32.9103C211.851 34.0345 213.666 35.7389 213.666 39.1477V39.2202ZM206.697 28.3773V28.3048C206.697 26.6367 205.391 25.6938 203.032 25.6938H197.515V31.0609H202.669C205.137 31.0609 206.697 30.2631 206.697 28.3773ZM208.113 38.5312V38.4587C208.113 36.7543 206.843 35.7026 203.975 35.7026H197.515V41.2872H204.157C206.625 41.2872 208.113 40.4169 208.113 38.5312Z" fill="white"/>
<path d="M187.102 46.1829H167.758V20.7982H186.921V25.7664H173.311V30.9158H185.287V35.8839H173.311V41.2147H187.102V46.1829Z" fill="white"/>
<path d="M163.488 46.1829H156.955L151.511 38.0598H147.119V46.1829H141.53V20.7982H153.144C159.132 20.7982 162.725 23.9532 162.725 29.1752V29.2477C162.725 33.3455 160.512 35.9202 157.281 37.1169L163.488 46.1829ZM157.064 29.5378V29.4653C157.064 27.0719 155.394 25.8389 152.672 25.8389H147.119V33.1279H152.781C155.503 33.1279 157.064 31.6774 157.064 29.5378Z" fill="white"/>
<path d="M137.609 46.1828H131.766L129.443 40.4894H118.7L116.378 46.1828H110.68L121.568 20.6169H126.721L137.609 46.1828ZM127.447 35.5576L124.072 27.3257L120.697 35.5576H127.447Z" fill="white"/>
<path d="M108.383 42.0852C105.77 44.8775 102.866 46.6181 97.9667 46.6181C90.4903 46.6181 84.9374 40.8522 84.9374 33.5632V33.4906C84.9374 26.2742 90.3814 20.3632 98.1844 20.3632C102.975 20.3632 105.842 21.9588 108.201 24.2796L104.645 28.3775C102.685 26.6005 100.689 25.5126 98.1481 25.5126C93.8655 25.5126 90.7806 29.0665 90.7806 33.4181V33.4906C90.7806 37.8423 93.7929 41.4687 98.1481 41.4687C101.052 41.4687 102.83 40.3082 104.826 38.495L108.383 42.0852Z" fill="white"/>
<path d="M225.744 52.5813C225.744 52.7268 225.768 52.8514 225.817 52.9553C225.865 53.0592 225.952 53.1562 226.076 53.2462C226.208 53.3362 226.385 53.4193 226.606 53.4955C226.835 53.5717 227.122 53.6513 227.468 53.7344C227.849 53.8314 228.185 53.9387 228.476 54.0564C228.774 54.1742 229.02 54.3196 229.214 54.4927C229.407 54.659 229.553 54.8563 229.65 55.0849C229.754 55.3065 229.806 55.5696 229.806 55.8744C229.806 56.2206 229.74 56.5288 229.608 56.7989C229.484 57.069 229.307 57.2975 229.078 57.4845C228.85 57.6715 228.576 57.8135 228.258 57.9104C227.939 58.0074 227.59 58.0559 227.209 58.0559C226.648 58.0559 226.111 57.9624 225.598 57.7754C225.086 57.5815 224.612 57.2871 224.175 56.8924L224.944 55.9782C225.297 56.283 225.654 56.5184 226.014 56.6846C226.374 56.8439 226.783 56.9236 227.24 56.9236C227.635 56.9236 227.946 56.8405 228.175 56.6742C228.41 56.508 228.528 56.283 228.528 55.999C228.528 55.8674 228.504 55.7497 228.455 55.6458C228.414 55.5419 228.331 55.4485 228.206 55.3653C228.088 55.2753 227.922 55.1922 227.707 55.116C227.499 55.0399 227.226 54.9602 226.887 54.8771C226.499 54.7871 226.152 54.6867 225.848 54.5759C225.55 54.465 225.297 54.3265 225.089 54.1603C224.889 53.9941 224.733 53.7933 224.622 53.5578C224.518 53.3224 224.466 53.035 224.466 52.6956C224.466 52.377 224.528 52.0896 224.653 51.8334C224.778 51.5702 224.947 51.3452 225.162 51.1582C225.384 50.9712 225.647 50.8292 225.952 50.7323C226.256 50.6284 226.589 50.5764 226.949 50.5764C227.482 50.5764 227.96 50.6561 228.382 50.8154C228.812 50.9677 229.214 51.1928 229.587 51.4906L228.902 52.4567C228.569 52.2143 228.24 52.0308 227.915 51.9061C227.59 51.7745 227.261 51.7087 226.928 51.7087C226.554 51.7087 226.263 51.7953 226.056 51.9684C225.848 52.1347 225.744 52.339 225.744 52.5813Z" fill="white"/>
<path d="M211.46 55.7081V50.6803H212.717V57.9519H211.647L207.637 52.7787V57.9519H206.38V50.6803H207.565L211.46 55.7081Z" fill="white"/>
<path d="M194.76 54.3057C194.76 54.8182 194.667 55.303 194.48 55.76C194.293 56.2171 194.03 56.6188 193.69 56.965C193.351 57.3044 192.949 57.5745 192.485 57.7753C192.021 57.9761 191.509 58.0766 190.948 58.0766C190.387 58.0766 189.874 57.9796 189.41 57.7857C188.946 57.5849 188.548 57.3148 188.216 56.9754C187.883 56.6361 187.624 56.2379 187.437 55.7808C187.25 55.3237 187.156 54.839 187.156 54.3265C187.156 53.814 187.25 53.3292 187.437 52.8721C187.624 52.4151 187.887 52.0169 188.226 51.6775C188.566 51.3312 188.967 51.0577 189.431 50.8569C189.895 50.656 190.408 50.5556 190.969 50.5556C191.53 50.5556 192.042 50.656 192.506 50.8569C192.97 51.0508 193.368 51.3174 193.701 51.6567C194.033 51.9961 194.293 52.3943 194.48 52.8514C194.667 53.3084 194.76 53.7932 194.76 54.3057ZM193.42 54.3265C193.42 53.9733 193.358 53.6409 193.233 53.3292C193.116 53.0107 192.946 52.7336 192.724 52.4982C192.51 52.2627 192.25 52.0757 191.945 51.9372C191.64 51.7987 191.308 51.7295 190.948 51.7295C190.588 51.7295 190.255 51.7987 189.951 51.9372C189.653 52.0688 189.397 52.2523 189.182 52.4878C188.967 52.7163 188.798 52.9899 188.673 53.3084C188.555 53.6201 188.496 53.9525 188.496 54.3057C188.496 54.6589 188.555 54.9948 188.673 55.3133C188.798 55.625 188.967 55.8985 189.182 56.134C189.404 56.3695 189.667 56.5564 189.971 56.695C190.276 56.8335 190.609 56.9027 190.969 56.9027C191.329 56.9027 191.658 56.8369 191.956 56.7053C192.26 56.5668 192.52 56.3833 192.735 56.1548C192.949 55.9193 193.116 55.6458 193.233 55.3341C193.358 55.0155 193.42 54.6797 193.42 54.3265Z" fill="white"/>
<path d="M174.177 50.6803H175.455V57.9519H174.177V50.6803Z" fill="white"/>
<path d="M160.367 51.8645V57.9519H159.079V51.8645H156.773V50.6803H162.673V51.8645H160.367Z" fill="white"/>
<path d="M145.462 50.6803V54.8044C145.462 55.3445 145.386 55.8189 145.233 56.2275C145.088 56.6361 144.88 56.9789 144.61 57.2559C144.34 57.526 144.011 57.7303 143.623 57.8688C143.242 58.0004 142.813 58.0662 142.335 58.0662C141.864 58.0662 141.438 58.0004 141.057 57.8688C140.676 57.7303 140.351 57.526 140.081 57.2559C139.811 56.9859 139.603 56.6534 139.458 56.2587C139.312 55.857 139.239 55.393 139.239 54.8667V50.6803H140.517V54.8147C140.517 55.4934 140.68 56.0094 141.005 56.3626C141.331 56.7158 141.781 56.8924 142.356 56.8924C142.924 56.8924 143.37 56.7227 143.696 56.3833C144.021 56.044 144.184 55.5385 144.184 54.8667V50.6803H145.462Z" fill="white"/>
<path d="M123.048 57.9519V50.6803H124.326V56.7885H128.149V57.9519H123.048Z" fill="white"/>
<path d="M111.428 54.3057C111.428 54.8182 111.335 55.303 111.148 55.76C110.961 56.2171 110.698 56.6188 110.358 56.965C110.019 57.3044 109.617 57.5745 109.153 57.7753C108.689 57.9761 108.177 58.0766 107.616 58.0766C107.055 58.0766 106.542 57.9796 106.078 57.7857C105.614 57.5849 105.216 57.3148 104.884 56.9754C104.551 56.6361 104.292 56.2379 104.105 55.7808C103.918 55.3237 103.824 54.839 103.824 54.3265C103.824 53.814 103.918 53.3292 104.105 52.8721C104.292 52.4151 104.555 52.0169 104.894 51.6775C105.234 51.3312 105.635 51.0577 106.099 50.8569C106.563 50.656 107.076 50.5556 107.637 50.5556C108.198 50.5556 108.71 50.656 109.174 50.8569C109.638 51.0508 110.036 51.3174 110.369 51.6567C110.701 51.9961 110.961 52.3943 111.148 52.8514C111.335 53.3084 111.428 53.7932 111.428 54.3057ZM110.088 54.3265C110.088 53.9733 110.026 53.6409 109.901 53.3292C109.784 53.0107 109.614 52.7336 109.392 52.4982C109.178 52.2627 108.918 52.0757 108.613 51.9372C108.308 51.7987 107.976 51.7295 107.616 51.7295C107.256 51.7295 106.923 51.7987 106.619 51.9372C106.321 52.0688 106.065 52.2523 105.85 52.4878C105.635 52.7163 105.466 52.9899 105.341 53.3084C105.223 53.6201 105.164 53.9525 105.164 54.3057C105.164 54.6589 105.223 54.9948 105.341 55.3133C105.466 55.625 105.635 55.8985 105.85 56.134C106.072 56.3695 106.335 56.5564 106.639 56.695C106.944 56.8335 107.277 56.9027 107.637 56.9027C107.997 56.9027 108.326 56.8369 108.624 56.7053C108.928 56.5668 109.188 56.3833 109.403 56.1548C109.617 55.9193 109.784 55.6458 109.901 55.3341C110.026 55.0155 110.088 54.6797 110.088 54.3265Z" fill="white"/>
<path d="M88.5054 52.5814C88.5054 52.7269 88.5296 52.8515 88.5781 52.9554C88.6266 53.0593 88.7131 53.1562 88.8378 53.2463C88.9694 53.3363 89.146 53.4194 89.3676 53.4956C89.5961 53.5718 89.8835 53.6514 90.2298 53.7345C90.6107 53.8315 90.9466 53.9388 91.2374 54.0565C91.5352 54.1743 91.7811 54.3197 91.975 54.4928C92.1689 54.6591 92.3143 54.8564 92.4113 55.085C92.5152 55.3066 92.5671 55.5697 92.5671 55.8745C92.5671 56.2207 92.5013 56.5289 92.3697 56.799C92.2451 57.0691 92.0685 57.2976 91.8399 57.4846C91.6114 57.6716 91.3378 57.8136 91.0193 57.9105C90.7007 58.0075 90.351 58.0559 89.9701 58.0559C89.4091 58.0559 88.8724 57.9625 88.3599 57.7755C87.8475 57.5816 87.3731 57.2872 86.9368 56.8925L87.7055 55.9783C88.0587 56.2831 88.4153 56.5185 88.7755 56.6847C89.1356 56.844 89.5442 56.9236 90.0012 56.9236C90.396 56.9236 90.7076 56.8405 90.9362 56.6743C91.1716 56.5081 91.2894 56.2831 91.2894 55.9991C91.2894 55.8675 91.2651 55.7498 91.2167 55.6459C91.1751 55.542 91.092 55.4485 90.9673 55.3654C90.8496 55.2754 90.6834 55.1923 90.4687 55.1161C90.261 55.0399 89.9874 54.9603 89.6481 54.8772C89.2602 54.7872 88.914 54.6868 88.6092 54.5759C88.3115 54.4651 88.0587 54.3266 87.8509 54.1604C87.6501 53.9942 87.4943 53.7934 87.3835 53.5579C87.2796 53.3225 87.2276 53.035 87.2276 52.6957C87.2276 52.3771 87.29 52.0897 87.4146 51.8335C87.5393 51.5703 87.7089 51.3453 87.9236 51.1583C88.1452 50.9713 88.4084 50.8293 88.7131 50.7324C89.0178 50.6285 89.3503 50.5765 89.7104 50.5765C90.2436 50.5765 90.7215 50.6562 91.1439 50.8155C91.5733 50.9678 91.975 51.1929 92.349 51.4907L91.6633 52.4568C91.3309 52.2144 91.002 52.0309 90.6765 51.9062C90.351 51.7746 90.022 51.7088 89.6896 51.7088C89.3156 51.7088 89.0248 51.7954 88.817 51.9685C88.6092 52.1347 88.5054 52.339 88.5054 52.5814Z" fill="white"/>
<path d="M51.4936 46.01C54.6803 46.01 57.2635 43.4371 57.2635 40.2633C57.2635 37.0894 54.6803 34.5165 51.4936 34.5165C48.307 34.5165 45.7238 37.0894 45.7238 40.2633C45.7238 43.4371 48.307 46.01 51.4936 46.01Z" fill="white"/>
<path d="M66.9039 26.2096C69.432 26.2096 71.4814 24.1683 71.4814 21.6503C71.4814 19.1323 69.432 17.0911 66.9039 17.0911C64.3757 17.0911 62.3263 19.1323 62.3263 21.6503C62.3263 24.1683 64.3757 26.2096 66.9039 26.2096Z" fill="white"/>
<path d="M66.9039 62.7968C69.432 62.7968 71.4814 60.7555 71.4814 58.2375C71.4814 55.7195 69.432 53.6783 66.9039 53.6783C64.3757 53.6783 62.3263 55.7195 62.3263 58.2375C62.3263 60.7555 64.3757 62.7968 66.9039 62.7968Z" fill="white"/>
<path d="M35.7895 80.6876C38.3176 80.6876 40.367 78.6463 40.367 76.1283C40.367 73.6103 38.3176 71.5691 35.7895 71.5691C33.2614 71.5691 31.2119 73.6103 31.2119 76.1283C31.2119 78.6463 33.2614 80.6876 35.7895 80.6876Z" fill="white"/>
<path d="M4.67534 62.7968C7.20346 62.7968 9.25291 60.7555 9.25291 58.2375C9.25291 55.7195 7.20346 53.6783 4.67534 53.6783C2.14722 53.6783 0.0977783 55.7195 0.0977783 58.2375C0.0977783 60.7555 2.14722 62.7968 4.67534 62.7968Z" fill="white"/>
<path d="M4.59722 26.9376C7.12534 26.9376 9.17479 24.8964 9.17479 22.3784C9.17479 19.8604 7.12534 17.8192 4.59722 17.8192C2.0691 17.8192 0.0196533 19.8604 0.0196533 22.3784C0.0196533 24.8964 2.0691 26.9376 4.59722 26.9376Z" fill="white"/>
<path d="M35.8077 9.11844C38.3358 9.11844 40.3852 7.0772 40.3852 4.5592C40.3852 2.04121 38.3358 0 35.8077 0C33.2795 0 31.2301 2.04121 31.2301 4.5592C31.2301 7.0772 33.2795 9.11844 35.8077 9.11844Z" fill="white"/>
<path d="M55.5977 14.1968C56.095 12.4603 55.2442 10.4373 53.6565 9.566C52.0687 8.69473 49.8938 9.07069 48.6895 10.4253C46.7242 12.6274 47.2155 17.7595 45.7236 20.3076C43.9441 23.3511 42.4402 22.9453 38.4079 23.0169C35.7716 23.0647 33.4289 23.7032 30.8705 23.0766C29.5883 22.7663 28.9172 22.5992 27.8687 21.8115C26.8142 21.0238 25.8735 19.4483 25.3762 18.3383C23.2013 13.4807 25.0467 12.2574 22.0509 9.87035C20.2534 8.67684 17.8328 9.87036 17.2457 10.6581C14.6213 14.4177 17.8568 16.5958 20.0377 18.3682C21.7993 20.0689 22.8118 21.1252 23.1414 21.9905C24.801 26.3588 23.387 28.6861 21.5117 31.7714C19.5464 34.9998 15.7118 38.3715 11.9251 38.1806C8.73162 38.0194 5.62199 35.4653 2.63219 36.5932C1.0564 37.184 -0.0520392 38.837 0.001885 40.5139C0.0558092 42.1907 1.26611 43.7662 2.87186 44.2615C5.81372 45.1626 9.60638 42.6085 12.6801 42.4235C18.4739 42.0714 19.3367 45.091 21.3319 48.6775C21.7333 49.3936 22.0928 50.2052 22.3984 51.0646C22.71 52.0253 22.9556 52.9921 23.1054 54.0364C24.8669 60.6425 18.7675 61.5317 16.3888 66.5206C16.3229 67.3501 15.7418 68.1975 16.4667 69.8027C16.8083 70.5606 17.5213 71.1097 18.2762 71.4498C19.0371 71.79 19.8999 71.8735 20.7148 71.7184C21.5296 71.5632 22.686 70.2205 23.2672 69.6237C25.6878 63.9307 25.4601 58.2555 32.7578 57.8736C33.8004 57.7184 34.8489 57.6528 35.8555 57.6468C40.3132 57.611 45.7656 58.9239 46.91 63.2146C47.4432 65.2077 46.862 67.4515 47.7787 69.3015C48.6415 71.0381 50.8464 71.9809 52.7038 71.408C54.5612 70.8351 55.8434 68.8121 55.5618 66.8906C55.2742 64.9093 53.6924 63.5666 52.1526 62.1702C50.9663 61.0961 49.8099 59.9861 49.2886 58.536C48.3419 55.9102 49.6781 52.6161 47.9825 50.4021C46.8081 48.8685 45.9094 48.2598 43.9681 48.2598C43.303 48.2598 42.0089 48.6417 41.3018 49.0893C39.8039 49.9427 38.0724 50.4379 36.227 50.4379C30.5709 50.4379 25.9874 45.8728 25.9874 40.2394C25.9874 34.606 30.5709 30.0408 36.227 30.0408C38.1443 30.0408 39.9298 30.5719 41.4576 31.4849C43.7584 32.0101 45.9693 32.2607 47.5511 30.6972C50.6247 27.7134 48.4498 24.3537 49.5223 21.4176C49.5822 21.2624 49.6421 21.1013 49.72 20.9522C51.0741 18.2429 54.7649 17.0971 55.5977 14.1968Z" fill="white"/>
</svg>
