<svg width="2008" height="2267" viewBox="0 0 2008 2267" fill="none" xmlns="http://www.w3.org/2000/svg">
<path d="M1445.9 1292.43C1535.38 1292.43 1607.92 1220.16 1607.92 1131C1607.92 1041.85 1535.38 969.575 1445.9 969.575C1356.43 969.575 1283.89 1041.85 1283.89 1131C1283.89 1220.16 1356.43 1292.43 1445.9 1292.43Z" fill="#FEC20E"/>
<path d="M1878.62 736.233C1949.61 736.233 2007.15 678.894 2007.15 608.163C2007.15 537.432 1949.61 480.093 1878.62 480.093C1807.63 480.093 1750.08 537.432 1750.08 608.163C1750.08 678.894 1807.63 736.233 1878.62 736.233Z" fill="#006759"/>
<path d="M1878.62 1763.98C1949.61 1763.98 2007.15 1706.64 2007.15 1635.9C2007.15 1565.17 1949.61 1507.83 1878.62 1507.83C1807.63 1507.83 1750.08 1565.17 1750.08 1635.9C1750.08 1706.64 1807.63 1763.98 1878.62 1763.98Z" fill="#006759"/>
<path d="M1004.95 2266.53C1075.94 2266.53 1133.49 2209.19 1133.49 2138.46C1133.49 2067.73 1075.94 2010.39 1004.95 2010.39C933.966 2010.39 876.419 2067.73 876.419 2138.46C876.419 2209.19 933.966 2266.53 1004.95 2266.53Z" fill="#006759"/>
<path d="M131.279 1763.98C202.267 1763.98 259.814 1706.64 259.814 1635.9C259.814 1565.17 202.267 1507.83 131.279 1507.83C60.2912 1507.83 2.74414 1565.17 2.74414 1635.9C2.74414 1706.64 60.2912 1763.98 131.279 1763.98Z" fill="#006759"/>
<path d="M129.096 756.684C200.084 756.684 257.631 699.346 257.631 628.615C257.631 557.884 200.084 500.545 129.096 500.545C58.1083 500.545 0.561157 557.884 0.561157 628.615C0.561157 699.346 58.1083 756.684 129.096 756.684Z" fill="#006759"/>
<path d="M1005.46 256.139C1076.45 256.139 1134 198.8 1134 128.069C1134 57.338 1076.45 0 1005.46 0C934.473 0 876.926 57.338 876.926 128.069C876.926 198.8 934.473 256.139 1005.46 256.139Z" fill="#006759"/>
<path d="M1561.15 398.793C1575.11 350.012 1551.22 293.186 1506.64 268.711C1462.06 244.237 1400.98 254.798 1367.17 292.85C1311.99 354.706 1325.78 498.868 1283.89 570.447C1233.92 655.938 1191.69 644.54 1078.47 646.552C1004.44 647.893 938.662 665.829 866.824 648.227C830.82 639.511 811.977 634.817 782.535 612.69C752.925 590.563 726.512 546.308 712.548 515.129C651.477 378.677 703.295 344.313 619.175 277.261C568.703 243.735 500.734 277.261 484.247 299.388C410.558 404.995 501.407 466.18 562.647 515.967C612.109 563.741 640.541 593.412 649.795 617.719C696.397 740.424 656.692 805.8 604.033 892.465C548.851 983.154 441.177 1077.86 334.85 1072.5C245.178 1067.97 157.862 996.229 73.9101 1027.91C29.6631 1044.51 -1.46123 1090.94 0.0529294 1138.04C1.56709 1185.15 35.5516 1229.4 80.6399 1243.32C163.246 1268.63 269.741 1196.88 356.048 1191.69C518.736 1181.8 542.962 1266.62 598.986 1367.36C610.258 1387.48 620.352 1410.28 628.932 1434.42C637.681 1461.4 644.579 1488.56 648.785 1517.9C698.248 1703.46 526.979 1728.44 460.188 1868.58C458.338 1891.88 442.018 1915.68 462.375 1960.77C471.965 1982.06 491.986 1997.49 513.184 2007.04C534.55 2016.6 558.777 2018.94 581.657 2014.58C604.538 2010.23 637.008 1972.51 653.327 1955.75C721.296 1795.83 714.903 1636.41 919.819 1625.68C949.093 1621.32 978.535 1619.48 1006.8 1619.31C1131.97 1618.31 1285.07 1655.18 1317.2 1775.71C1332.17 1831.7 1315.86 1894.73 1341.6 1946.69C1365.82 1995.47 1427.73 2021.96 1479.89 2005.87C1532.04 1989.78 1568.05 1932.95 1560.14 1878.97C1552.06 1823.32 1507.65 1785.6 1464.41 1746.38C1431.1 1716.2 1398.63 1685.02 1383.99 1644.29C1357.41 1570.53 1394.93 1478 1347.32 1415.81C1314.34 1372.73 1289.1 1355.63 1234.6 1355.63C1215.92 1355.63 1179.58 1366.36 1159.73 1378.93C1117.67 1402.9 1069.05 1416.81 1017.23 1416.81C858.412 1416.81 729.708 1288.58 729.708 1130.33C729.708 972.09 858.412 843.852 1017.23 843.852C1071.07 843.852 1121.2 858.772 1164.1 884.419C1228.71 899.171 1290.79 906.211 1335.2 862.292C1421.51 778.477 1360.44 684.1 1390.55 601.626C1392.24 597.267 1393.92 592.742 1396.11 588.551C1434.13 512.447 1537.76 480.261 1561.15 398.793Z" fill="#006759"/>
</svg>
